<svg xmlns="http://www.w3.org/2000/svg" viewBox="0 0 448 512"><title>settings</title><path d="M224,175a81,81,0,1,0,80.72,81A81,81,0,0,0,224,175ZM386.31,302.53l-14.59,35.16,29.47,57.88-36.09,36.09-59.22-28-35.16,14.44-17.84,54.63L250.6,480h-51L177.5,418.34l-35.16-14.5-58,29.34L48.32,397.12l27.94-59.25L61.77,302.75,0,282.59v-51l61.7-22.11,14.48-35.09-26-51.23-3.42-6.72,36-36,59.3,27.92,35.11-14.52,17.83-54.59,2.3-7.23h51l22.09,61.73,35.06,14.52,58-29.41,36.06,36-27.94,59.2,14.44,35.17L448,229.38v51l-61.69,22.19Z"/></svg>